<?xml version="1.0" encoding="UTF-8"?>
<svg width="1443px" height="482px" viewBox="1284 251 1443 482" xmlns="http://www.w3.org/2000/svg" xmlns:xlink="http://www.w3.org/1999/xlink" version="1.1">
 <!-- Generated by Pixelmator Pro 2.0.4 -->
 <path id="carte" d="M2564.65 732.5 C2633.25 732.5 2675.25 711.5 2705.35 689.8 L2705.35 616.3 C2659.85 649.2 2620.65 662.5 2569.55 662.5 2519.85 662.5 2475.75 629.6 2472.95 578.5 L2724.95 578.5 C2725.65 573.6 2726.35 561 2726.35 552.6 2726.35 446.9 2664.75 371.3 2558.35 371.3 2465.25 371.3 2388.25 442.7 2388.25 550.5 2388.25 669.5 2468.75 732.5 2564.65 732.5 Z M2475.05 518.3 C2477.85 479.1 2510.05 441.3 2558.35 441.3 2612.25 441.3 2640.95 475.6 2642.35 518.3 Z M2317.55 732.5 C2340.65 732.5 2364.45 727.6 2372.15 724.8 L2372.15 655.5 C2364.45 658.3 2352.55 659.7 2342.05 659.7 2308.45 659.7 2292.35 645 2292.35 614.2 L2292.35 451.8 2372.15 451.8 2372.15 382.5 2292.35 382.5 2292.35 251.6 2216.05 286.6 2216.05 382.5 C2216.05 382.5 2218.969 382.014 2211 382 2184.278 381.955 2153 375 2153 375 L2153 458 C2153 458 2176.65 452.792 2207 452 2211.665 451.878 2211.85 451.8 2211.85 451.8 L2211.85 630.3 C2211.85 700.3 2257.35 732.5 2317.55 732.5 Z M1923.75 722 L2004.25 722 2004.25 518.3 C2012.65 486.1 2044.85 455.3 2091.05 455.3 2102.25 455.3 2113.45 456.7 2124.65 458.1 L2124.65 374.1 C2119.75 372.7 2108.55 371.3 2100.15 371.3 2056.75 371.3 2020.35 395.8 2002.85 437.1 L2002.85 382.5 1923.75 382.5 Z M1720.75 732.5 C1763.45 732.5 1797.05 715.7 1817.35 696.8 L1817.35 722 1893.65 722 1893.65 494.5 C1893.65 428.7 1846.75 371.3 1746.65 371.3 1696.25 371.3 1650.05 384.6 1613.65 402.8 L1613.65 481.9 C1645.85 462.3 1692.05 442.7 1741.75 442.7 1791.45 442.7 1813.15 468.6 1813.15 498 L1813.15 527.4 C1791.45 515.5 1760.65 506.4 1722.85 506.4 1654.25 506.4 1594.05 545.6 1594.05 614.9 1594.05 689.8 1647.25 732.5 1720.75 732.5 Z M1739.65 668.1 C1703.95 668.1 1675.25 647.8 1675.25 613.5 1675.25 582.7 1703.95 564.5 1739.65 564.5 1772.55 564.5 1801.25 577.8 1813.15 587.6 L1813.15 639.4 C1801.25 651.3 1773.25 668.1 1739.65 668.1 Z M1470.15 449 C1508.65 449 1538.75 458.1 1573.05 481.2 L1573.05 395.1 C1547.85 383.2 1513.55 371.3 1468.05 371.3 1362.35 371.3 1284.65 444.8 1284.65 551.9 1284.65 658.3 1362.35 732.5 1468.05 732.5 1513.55 732.5 1547.85 720.6 1573.05 708.7 L1573.05 623.3 C1538.75 645.7 1508.65 655.5 1470.15 655.5 1419.05 655.5 1369.35 620.5 1369.35 551.9 1369.35 483.3 1419.05 449 1470.15 449 Z" fill="#1f2324" fill-opacity="1" stroke="none"/>
</svg>
