<?xml version="1.0" encoding="UTF-8"?>
<svg width="3000px" height="1000px" viewBox="0 0 3000 1000" xmlns="http://www.w3.org/2000/svg" xmlns:xlink="http://www.w3.org/1999/xlink" version="1.1">
 <path id="carte" d="M2564.65 732.5 C2633.25 732.5 2675.25 711.5 2705.35 689.8 L2705.35 616.3 C2659.85 649.2 2620.65 662.5 2569.55 662.5 2519.85 662.5 2475.75 629.6 2472.95 578.5 L2724.95 578.5 C2725.65 573.6 2726.35 561 2726.35 552.6 2726.35 446.9 2664.75 371.3 2558.35 371.3 2465.25 371.3 2388.25 442.7 2388.25 550.5 2388.25 669.5 2468.75 732.5 2564.65 732.5 Z M2475.05 518.3 C2477.85 479.1 2510.05 441.3 2558.35 441.3 2612.25 441.3 2640.95 475.6 2642.35 518.3 Z M2317.55 732.5 C2340.65 732.5 2364.45 727.6 2372.15 724.8 L2372.15 655.5 C2364.45 658.3 2352.55 659.7 2342.05 659.7 2308.45 659.7 2292.35 645 2292.35 614.2 L2292.35 451.8 2372.15 451.8 2372.15 382.5 2292.35 382.5 2292.35 251.6 2216.05 286.6 2216.05 382.5 C2216.05 382.5 2218.969 382.014 2211 382 2184.278 381.955 2153 375 2153 375 L2153 458 C2153 458 2176.65 452.792 2207 452 2211.665 451.878 2211.85 451.8 2211.85 451.8 L2211.85 630.3 C2211.85 700.3 2257.35 732.5 2317.55 732.5 Z M1923.75 722 L2004.25 722 2004.25 518.3 C2012.65 486.1 2044.85 455.3 2091.05 455.3 2102.25 455.3 2113.45 456.7 2124.65 458.1 L2124.65 374.1 C2119.75 372.7 2108.55 371.3 2100.15 371.3 2056.75 371.3 2020.35 395.8 2002.85 437.1 L2002.85 382.5 1923.75 382.5 Z M1720.75 732.5 C1763.45 732.5 1797.05 715.7 1817.35 696.8 L1817.35 722 1893.65 722 1893.65 494.5 C1893.65 428.7 1846.75 371.3 1746.65 371.3 1696.25 371.3 1650.05 384.6 1613.65 402.8 L1613.65 481.9 C1645.85 462.3 1692.05 442.7 1741.75 442.7 1791.45 442.7 1813.15 468.6 1813.15 498 L1813.15 527.4 C1791.45 515.5 1760.65 506.4 1722.85 506.4 1654.25 506.4 1594.05 545.6 1594.05 614.9 1594.05 689.8 1647.25 732.5 1720.75 732.5 Z M1739.65 668.1 C1703.95 668.1 1675.25 647.8 1675.25 613.5 1675.25 582.7 1703.95 564.5 1739.65 564.5 1772.55 564.5 1801.25 577.8 1813.15 587.6 L1813.15 639.4 C1801.25 651.3 1773.25 668.1 1739.65 668.1 Z M1470.15 449 C1508.65 449 1538.75 458.1 1573.05 481.2 L1573.05 395.1 C1547.85 383.2 1513.55 371.3 1468.05 371.3 1362.35 371.3 1284.65 444.8 1284.65 551.9 1284.65 658.3 1362.35 732.5 1468.05 732.5 1513.55 732.5 1547.85 720.6 1573.05 708.7 L1573.05 623.3 C1538.75 645.7 1508.65 655.5 1470.15 655.5 1419.05 655.5 1369.35 620.5 1369.35 551.9 1369.35 483.3 1419.05 449 1470.15 449 Z" fill="#1f2324" fill-opacity="1" stroke="none"/>
 <g id="LOGO-copy">
  <path id="}-copy-1" d="M498 901 C498 858.769 476.399 828.189 417.199 828.189 L322.801 828.189 C239.601 828.189 182 796.879 182 718.971 L182 687.662 182 501 182 499 182 312.338 182 281.029 C182 203.121 239.601 171.811 322.801 171.811 L417.199 171.811 C476.399 171.811 498 141.231 498 99 L566.801 99 C566.801 141.231 588.4 171.811 647.6 171.811 L742 171.811 C825.2 171.811 882.801 203.121 882.801 281.029 L882.801 384.338 822.801 403.311 C822.801 400.558 822.674 282.913 822.424 280.373 819.094 246.631 793.673 231.518 746.801 231.518 L630.801 231.518 C577.201 231.518 542 206.761 532.4 160.162 522.8 206.761 487.6 231.518 434 231.518 L318 231.518 C267.6 231.518 242 248.992 242 288.311 L242 499 242 501 242 711.689 C242 751.008 267.6 768.482 318 768.482 L434 768.482 C487.6 768.482 522.8 793.239 532.4 839.838 542 793.239 577.201 768.482 630.801 768.482 L746.801 768.482 C793.673 768.482 819.094 753.369 822.424 719.627 822.674 717.087 822.801 599.442 822.801 596.689 L882.801 615.662 882.801 718.971 C882.801 796.879 825.2 828.189 742 828.189 L647.6 828.189 C588.4 828.189 566.801 858.769 566.801 901 L498 901 Z" fill="#1f2324" fill-opacity="1" stroke="none"/>
  <path id="c" d="M571.445 406.064 C607.152 406.064 635.069 414.504 666.881 435.928 L666.881 356.074 C643.509 345.037 611.697 334 569.497 334 471.464 334 399.4 402.169 399.4 501.5 399.4 600.182 471.464 669 569.497 669 611.697 669 643.509 657.963 666.881 646.926 L666.881 567.721 C635.069 588.496 607.152 597.585 571.445 597.585 524.051 597.585 477.956 565.124 477.956 501.5 477.956 437.876 524.051 406.064 571.445 406.064 Z" fill="#1f2324" fill-opacity="1" stroke="none"/>
 </g>
</svg>
